<?xml version="1.0" encoding="UTF-8"?>
<!DOCTYPE svg PUBLIC "-//W3C//DTD SVG 1.1//EN" "http://www.w3.org/Graphics/SVG/1.1/DTD/svg11.dtd">
<svg xmlns="http://www.w3.org/2000/svg" version="1.1" width="512px" height="512px" style="shape-rendering:geometricPrecision; text-rendering:geometricPrecision; image-rendering:optimizeQuality; fill-rule:evenodd; clip-rule:evenodd" xmlns:xlink="http://www.w3.org/1999/xlink">
<g><path style="opacity:0.971" fill="#020201" d="M 460.5,167.5 C 457.66,170.143 454.327,170.976 450.5,170C 439.469,161.984 427.469,155.818 414.5,151.5C 411.587,162.977 409.754,174.643 409,186.5C 406.774,190.861 403.274,192.361 398.5,191C 395.114,188.131 393.781,184.464 394.5,180C 395.919,168.736 397.919,157.569 400.5,146.5C 391.568,144.925 382.568,143.925 373.5,143.5C 357.147,141.76 340.813,142.76 324.5,146.5C 328.348,159.571 330.182,172.904 330,186.5C 327.774,190.861 324.274,192.361 319.5,191C 317.951,189.786 316.785,188.286 316,186.5C 315.525,175.319 313.859,164.319 311,153.5C 310.612,152.572 309.945,151.905 309,151.5C 257.802,172.567 230.969,210.9 228.5,266.5C 229.209,307.098 247.209,337.264 282.5,357C 312.551,372.312 344.218,378.146 377.5,374.5C 411.232,373.096 440.899,361.596 466.5,340C 490.392,315.686 500.226,286.519 496,252.5C 493.26,230.032 485.26,209.699 472,191.5C 471.333,189.5 471.333,187.5 472,185.5C 473.481,184.529 474.315,183.196 474.5,181.5C 477.512,180.314 480.512,180.48 483.5,182C 499.194,202.251 508.527,225.084 511.5,250.5C 511.5,261.5 511.5,272.5 511.5,283.5C 503.376,329.139 477.71,360.639 434.5,378C 398.347,390.762 361.347,394.095 323.5,388C 289.406,435.207 243.073,456.874 184.5,453C 135.174,447.606 97.341,424.106 71,382.5C 52.3553,365.266 32.1886,350.1 10.5,337C 5.69402,332.522 2.02735,327.356 -0.5,321.5C -0.5,315.833 -0.5,310.167 -0.5,304.5C 1.67202,297.805 5.67202,292.305 11.5,288C 32.7464,275.091 52.5797,260.258 71,243.5C 74.592,236.646 78.9253,230.313 84,224.5C 82.3771,186.666 99.2104,161.333 134.5,148.5C 145.57,107.599 172.236,88.7654 214.5,92C 227.402,94.119 238.735,99.4523 248.5,108C 260.102,119.934 269.769,133.268 277.5,148C 278.5,148.667 279.5,148.667 280.5,148C 288.437,143.198 296.77,139.198 305.5,136C 303.603,130.811 301.603,125.644 299.5,120.5C 271.17,116.49 261.003,100.823 269,73.5C 280.422,57.0336 295.255,53.2002 313.5,62C 328.37,73.816 331.536,88.316 323,105.5C 320.66,109.006 317.826,112.006 314.5,114.5C 316.896,119.293 318.73,124.293 320,129.5C 320.519,130.516 321.353,131.182 322.5,131.5C 349.168,126.167 375.835,126.167 402.5,131.5C 403.167,131.167 403.833,130.833 404.5,130.5C 406.303,125.089 408.303,119.756 410.5,114.5C 397.418,103.169 394.251,89.5028 401,73.5C 412.422,57.0336 427.255,53.2002 445.5,62C 458.818,72.2963 462.651,85.463 457,101.5C 450.215,113.748 439.715,120.082 425.5,120.5C 423.397,125.644 421.397,130.811 419.5,136C 433.052,141.108 445.718,147.775 457.5,156C 461.325,159.136 462.325,162.969 460.5,167.5 Z"/></g>
<g><path style="opacity:1" fill="#395897" d="M 292.5,72.5 C 307.672,72.4924 313.839,79.8257 311,94.5C 306.488,102.568 299.655,105.401 290.5,103C 282.587,98.3342 279.754,91.5009 282,82.5C 284.738,78.2595 288.238,74.9262 292.5,72.5 Z"/></g>
<g><path style="opacity:1" fill="#395896" d="M 424.5,72.5 C 439.406,72.6937 445.572,80.027 443,94.5C 438.446,102.579 431.613,105.413 422.5,103C 412.554,95.9511 410.888,87.2844 417.5,77C 419.898,75.4758 422.231,73.9758 424.5,72.5 Z"/></g>
<g><path style="opacity:1" fill="#7fdafa" d="M 250.5,135.5 C 239.832,143.839 229.832,152.839 220.5,162.5C 198.666,153.708 175.999,148.375 152.5,146.5C 158.04,125.131 171.706,111.964 193.5,107C 218.826,104.329 237.826,113.829 250.5,135.5 Z"/></g>
<g><path style="opacity:1" fill="#30caf6" d="M 250.5,135.5 C 256.223,142.589 261.223,150.256 265.5,158.5C 258.838,163.662 252.838,169.495 247.5,176C 246.5,176.667 245.5,176.667 244.5,176C 236.891,170.698 228.891,166.198 220.5,162.5C 229.832,152.839 239.832,143.839 250.5,135.5 Z"/></g>
<g><path style="opacity:1" fill="#f6ce70" d="M 373.5,143.5 C 367.5,143.5 361.5,143.5 355.5,143.5C 335.012,205.009 332.178,267.342 347,330.5C 351.517,345.555 357.684,359.888 365.5,373.5C 369.445,374.491 373.445,374.824 377.5,374.5C 344.218,378.146 312.551,372.312 282.5,357C 247.209,337.264 229.209,307.098 228.5,266.5C 230.969,210.9 257.802,172.567 309,151.5C 309.945,151.905 310.612,152.572 311,153.5C 313.859,164.319 315.525,175.319 316,186.5C 316.785,188.286 317.951,189.786 319.5,191C 324.274,192.361 327.774,190.861 330,186.5C 330.182,172.904 328.348,159.571 324.5,146.5C 340.813,142.76 357.147,141.76 373.5,143.5 Z"/></g>
<g><path style="opacity:1" fill="#f5e768" d="M 373.5,143.5 C 382.568,143.925 391.568,144.925 400.5,146.5C 397.919,157.569 395.919,168.736 394.5,180C 393.781,184.464 395.114,188.131 398.5,191C 403.274,192.361 406.774,190.861 409,186.5C 409.754,174.643 411.587,162.977 414.5,151.5C 427.469,155.818 439.469,161.984 450.5,170C 454.327,170.976 457.66,170.143 460.5,167.5C 464.833,172.5 469.5,177.167 474.5,181.5C 474.315,183.196 473.481,184.529 472,185.5C 471.333,187.5 471.333,189.5 472,191.5C 485.26,209.699 493.26,230.032 496,252.5C 500.226,286.519 490.392,315.686 466.5,340C 440.899,361.596 411.232,373.096 377.5,374.5C 373.445,374.824 369.445,374.491 365.5,373.5C 357.684,359.888 351.517,345.555 347,330.5C 332.178,267.342 335.012,205.009 355.5,143.5C 361.5,143.5 367.5,143.5 373.5,143.5 Z"/></g>
<g><path style="opacity:1" fill="#a2e5fd" d="M 212.5,175.5 C 196.355,202.269 187.022,231.269 184.5,262.5C 170.384,266.13 156.05,267.297 141.5,266C 110.641,256.103 97.1409,234.936 101,202.5C 112.238,170.454 134.738,157.287 168.5,163C 183.531,165.924 198.197,170.091 212.5,175.5 Z"/></g>
<g><path style="opacity:1" fill="#80dbfb" d="M 212.5,175.5 C 221.46,178.643 229.46,183.309 236.5,189.5C 224.278,208.833 216.611,229.833 213.5,252.5C 204.077,256.604 194.41,259.937 184.5,262.5C 187.022,231.269 196.355,202.269 212.5,175.5 Z"/></g>
<g><path style="opacity:1" fill="#070503" d="M 294.5,259.5 C 289.107,265.111 284.107,264.777 279.5,258.5C 281.265,239.906 291.265,232.74 309.5,237C 318.717,241.272 322.884,248.439 322,258.5C 317.748,264.653 313.081,264.986 308,259.5C 307.589,250.732 303.589,248.399 296,252.5C 294.798,254.677 294.298,257.011 294.5,259.5 Z"/></g>
<g><path style="opacity:1" fill="#050402" d="M 445.5,258.5 C 440.5,265.167 435.5,265.167 430.5,258.5C 429.907,250.429 426.074,248.429 419,252.5C 418.081,255.778 416.914,258.945 415.5,262C 404.661,264.821 400.827,260.654 404,249.5C 409.802,237.018 419.302,232.851 432.5,237C 441.562,241.288 445.895,248.455 445.5,258.5 Z"/></g>
<g><path style="opacity:1" fill="#f6ce70" d="M 128.5,306.5 C 106.831,300.182 89.1639,288.182 75.5,270.5C 78.9283,260.309 83.9283,250.976 90.5,242.5C 99.0977,259.764 112.431,271.764 130.5,278.5C 130.833,279.167 131.167,279.833 131.5,280.5C 130.281,289.146 129.281,297.812 128.5,306.5 Z"/></g>
<g><path style="opacity:1" fill="#fea1ab" d="M 279.5,258.5 C 284.107,264.777 289.107,265.111 294.5,259.5C 303.417,262.583 309.584,268.583 313,277.5C 312.83,292.351 305.33,301.184 290.5,304C 279.561,305.849 269.895,303.183 261.5,296C 250.934,279.773 254.601,267.773 272.5,260C 274.813,259.338 277.146,258.838 279.5,258.5 Z"/></g>
<g><path style="opacity:1" fill="#fea1ab" d="M 430.5,258.5 C 435.5,265.167 440.5,265.167 445.5,258.5C 456.307,260.145 464.14,265.812 469,275.5C 470.653,289.348 464.82,298.514 451.5,303C 438.326,306.665 426.826,303.831 417,294.5C 410.077,283.641 411.243,273.808 420.5,265C 424.069,263.058 427.402,260.892 430.5,258.5 Z"/></g>
<g><path style="opacity:1" fill="#060502" d="M 344.5,265.5 C 349.437,264.603 353.437,266.103 356.5,270C 363.064,272.592 368.731,271.258 373.5,266C 381.791,264.045 385.291,267.212 384,275.5C 373.685,287.492 361.518,289.658 347.5,282C 345.667,280.167 343.833,278.333 342,276.5C 339.6,271.99 340.433,268.323 344.5,265.5 Z"/></g>
<g><path style="opacity:1" fill="#3a5998" d="M 286.5,405.5 C 248.809,392.052 220.309,367.718 201,332.5C 196.79,323.585 193.29,314.418 190.5,305C 175.419,308.141 160.085,309.641 144.5,309.5C 144.5,314.167 144.5,318.833 144.5,323.5C 142.927,309.862 143.593,296.195 146.5,282.5C 169.457,281.285 191.79,276.952 213.5,269.5C 216.554,320.135 241.221,355.635 287.5,376C 294.062,378.781 300.729,381.281 307.5,383.5C 301.855,392.145 294.855,399.478 286.5,405.5 Z"/></g>
<g><path style="opacity:1" fill="#f5e768" d="M 75.5,270.5 C 89.1639,288.182 106.831,300.182 128.5,306.5C 128.18,332.397 132.68,357.397 142,381.5C 144.642,384.029 147.808,385.029 151.5,384.5C 153.907,390.314 156.574,395.98 159.5,401.5C 156.342,404.794 155.842,408.461 158,412.5C 163.746,420.917 170.246,428.75 177.5,436C 136.843,429.922 105.676,409.422 84,374.5C 65.4493,340.941 62.616,306.275 75.5,270.5 Z"/></g>
<g><path style="opacity:1" fill="#5770a1" d="M 56.5,275.5 C 57.0967,275.735 57.4301,276.235 57.5,277C 52.7759,293.182 51.2759,309.682 53,326.5C 54.35,334.571 55.6833,342.571 57,350.5C 45.6199,340.892 33.4532,332.392 20.5,325C 12.2719,316.368 12.6052,308.034 21.5,300C 34.1761,293.138 45.8427,284.971 56.5,275.5 Z"/></g>
<g><path style="opacity:1" fill="#5871a3" d="M 286.5,405.5 C 262.065,427.149 233.398,437.649 200.5,437C 188.046,426.883 177.379,415.217 168.5,402C 165.584,400.182 162.584,400.016 159.5,401.5C 156.574,395.98 153.907,390.314 151.5,384.5C 153.853,382.461 155.187,379.794 155.5,376.5C 148.934,359.439 145.267,341.772 144.5,323.5C 144.5,318.833 144.5,314.167 144.5,309.5C 160.085,309.641 175.419,308.141 190.5,305C 193.29,314.418 196.79,323.585 201,332.5C 220.309,367.718 248.809,392.052 286.5,405.5 Z"/></g>
</svg>
